<svg xmlns="http://www.w3.org/2000/svg" xmlns:xlink="http://www.w3.org/1999/xlink" width="1024" zoomAndPan="magnify" viewBox="0 0 768 767.999994" height="1024" preserveAspectRatio="xMidYMid meet" version="1.0"><defs><clipPath id="be32531856"><path d="M 204.5625 379 L 286.242188 379 L 286.242188 569.34375 L 204.5625 569.34375 Z M 204.5625 379 " clip-rule="nonzero"/></clipPath><clipPath id="7090827ce6"><path d="M 488 334.808594 L 563.0625 334.808594 L 563.0625 546 L 488 546 Z M 488 334.808594 " clip-rule="nonzero"/></clipPath></defs><path fill="#a04e18" d="M 509.617188 221.230469 C 505.867188 198.425781 394.980469 236.269531 376.25 247.847656 C 374.265625 249.074219 343.890625 248.679688 313.898438 255.066406 C 275.546875 263.230469 232.222656 276.570312 235 289.511719 C 242.484375 324.382812 266.566406 445.570312 285.335938 458.308594 C 292.699219 463.304688 335.160156 454.269531 369.203125 443.691406 C 400.011719 434.113281 422.941406 423.113281 424.667969 423.042969 C 437.972656 422.515625 540.214844 401.683594 545.410156 397.300781 C 562.605469 382.785156 512.378906 238.003906 509.617188 221.230469 " fill-opacity="1" fill-rule="evenodd"/><path fill="#ffe9bf" d="M 375.96875 251.53125 C 375.003906 251.816406 345.8125 248.511719 326.1875 251.960938 C 309.320312 254.929688 254.289062 265.078125 241.855469 279.617188 C 239.246094 282.671875 252.167969 316.265625 255.761719 328.371094 C 261.289062 347.003906 277.480469 443.332031 288.179688 452.492188 C 294.542969 457.941406 429.238281 419.957031 429.699219 419.625 C 432.457031 417.628906 465.800781 413.089844 500.972656 404.375 C 511.300781 401.816406 533.269531 396.078125 542.980469 393.164062 C 547.242188 391.882812 527.019531 319.953125 519.707031 295.988281 C 515.753906 283.027344 503.636719 218.308594 502.546875 218.035156 C 489.351562 214.746094 452.78125 221.769531 439.820312 225.105469 C 412.902344 232.035156 379.046875 250.636719 375.96875 251.53125 " fill-opacity="1" fill-rule="evenodd"/><path fill="#fff9ee" d="M 376.285156 251.269531 C 375.378906 251.53125 345.035156 248.167969 312.867188 255.117188 C 297.199219 258.5 265.429688 266.46875 253.855469 280.320312 C 251.421875 283.226562 263.703125 315.433594 267.132812 327.039062 C 272.410156 344.898438 288.070312 437.148438 298.140625 445.96875 C 304.128906 451.214844 426.285156 420.960938 426.714844 420.644531 C 429.285156 418.75 464.347656 409.175781 497.257812 401.019531 C 506.917969 398.621094 527.46875 393.242188 536.554688 390.503906 C 540.539062 389.304688 521.226562 320.371094 514.253906 297.40625 C 510.480469 284.980469 497.121094 221.238281 496.097656 220.972656 C 483.71875 217.757812 460.78125 219.414062 436.398438 225.242188 C 411.101562 231.289062 379.164062 250.425781 376.285156 251.269531 " fill-opacity="1" fill-rule="evenodd"/><path fill="#e46b37" d="M 401.960938 238.742188 C 403.429688 235.859375 390.820312 242.953125 390.292969 244.277344 C 389.429688 246.449219 383.265625 264.535156 388.714844 282.460938 C 395.839844 305.890625 410.839844 317.40625 413.769531 344.789062 C 415.433594 360.335938 413.695312 391.617188 417.28125 411.0625 C 421.914062 436.191406 431.285156 450.417969 435.449219 455.253906 C 437.894531 458.09375 434.027344 446.152344 434.867188 444.015625 C 435.171875 443.230469 443.421875 452.386719 444.441406 451.085938 C 446.097656 448.972656 432.558594 436.933594 426.816406 410.71875 C 423.605469 396.054688 426.648438 360.9375 425.691406 348.082031 C 423.789062 322.527344 409.082031 307.199219 397.386719 279.703125 C 391.6875 266.304688 395.238281 251.957031 401.960938 238.742188 " fill-opacity="1" fill-rule="evenodd"/><path fill="#bd997e" d="M 293.007812 294.664062 C 296.675781 290.171875 301.550781 287.511719 307.761719 286.09375 C 310.332031 285.503906 313.148438 285.746094 315.960938 285.984375 C 319.003906 286.234375 322.03125 286.484375 324.769531 285.898438 C 327.230469 285.375 329.398438 284.125 331.5625 282.894531 C 333.507812 281.785156 335.445312 280.6875 337.667969 280.339844 C 342.015625 279.65625 344.488281 280.335938 346.804688 280.699219 C 348.550781 280.976562 350.222656 281.085938 352.394531 280.492188 C 361.574219 277.988281 370.570312 273.492188 378.796875 273.519531 C 379.414062 273.523438 379.917969 273.023438 379.921875 272.402344 C 379.925781 271.785156 379.425781 271.28125 378.804688 271.277344 C 370.394531 271.246094 361.1875 275.769531 351.804688 278.328125 C 349.507812 278.953125 347.871094 278.613281 345.945312 278.28125 C 343.761719 277.902344 341.246094 277.503906 337.320312 278.121094 C 334.828125 278.511719 332.636719 279.699219 330.453125 280.945312 C 328.488281 282.0625 326.535156 283.230469 324.304688 283.703125 C 321.769531 284.246094 318.960938 283.984375 316.148438 283.746094 C 313.101562 283.492188 310.046875 283.269531 307.261719 283.90625 C 300.519531 285.449219 295.25 288.371094 291.269531 293.246094 C 290.878906 293.722656 290.953125 294.429688 291.429688 294.824219 C 291.910156 295.214844 292.617188 295.144531 293.007812 294.664062 " fill-opacity="1" fill-rule="evenodd"/><path fill="#bd997e" d="M 304.152344 303.347656 C 311.660156 300.742188 316.292969 296.320312 325.652344 294.570312 C 329.304688 293.890625 332.175781 293.902344 335.058594 293.925781 C 339.574219 293.964844 344.117188 294.042969 351.492188 291.796875 C 356.9375 290.136719 369.335938 284.851562 375.085938 284.921875 C 375.703125 284.929688 376.214844 284.433594 376.222656 283.8125 C 376.230469 283.195312 375.734375 282.6875 375.117188 282.679688 C 369.203125 282.605469 356.4375 287.945312 350.835938 289.652344 C 343.769531 291.808594 339.410156 291.71875 335.078125 291.683594 C 332.0625 291.652344 329.058594 291.652344 325.238281 292.367188 C 315.746094 294.140625 311.027344 298.585938 303.417969 301.230469 C 302.835938 301.433594 302.523438 302.074219 302.726562 302.65625 C 302.929688 303.242188 303.570312 303.550781 304.152344 303.347656 " fill-opacity="1" fill-rule="evenodd"/><path fill="#bd997e" d="M 282.015625 338.820312 C 300.957031 329.585938 313.792969 331.730469 332.351562 327.085938 C 352.308594 322.09375 376.425781 311.765625 395.660156 309.570312 C 396.277344 309.496094 396.71875 308.941406 396.652344 308.328125 C 396.578125 307.710938 396.023438 307.269531 395.410156 307.335938 C 376.085938 309.546875 351.855469 319.894531 331.808594 324.910156 C 313.085938 329.59375 300.144531 327.484375 281.03125 336.804688 C 280.472656 337.074219 280.246094 337.746094 280.515625 338.304688 C 280.789062 338.859375 281.457031 339.09375 282.015625 338.820312 " fill-opacity="1" fill-rule="evenodd"/><path fill="#bd997e" d="M 287.714844 346.761719 C 294.117188 343.292969 309.136719 339.199219 326.148438 334.878906 C 351.921875 328.332031 382.238281 321.304688 394.570312 315.320312 C 395.128906 315.054688 395.359375 314.382812 395.089844 313.824219 C 394.820312 313.269531 394.148438 313.035156 393.59375 313.304688 C 381.339844 319.246094 351.207031 326.203125 325.597656 332.703125 C 308.351562 337.082031 293.140625 341.273438 286.644531 344.789062 C 286.101562 345.082031 285.898438 345.761719 286.195312 346.304688 C 286.488281 346.851562 287.167969 347.054688 287.714844 346.761719 " fill-opacity="1" fill-rule="evenodd"/><path fill="#bd997e" d="M 293.066406 354.699219 C 312.769531 344.589844 335.53125 341.769531 353.726562 337.457031 C 366.855469 334.34375 383.945312 330.75 396.628906 326.167969 C 397.210938 325.957031 397.511719 325.3125 397.304688 324.730469 C 397.09375 324.148438 396.449219 323.847656 395.867188 324.054688 C 383.257812 328.613281 366.261719 332.179688 353.207031 335.277344 C 334.859375 339.625 311.910156 342.507812 292.042969 352.707031 C 291.492188 352.988281 291.277344 353.664062 291.558594 354.214844 C 291.839844 354.765625 292.515625 354.984375 293.066406 354.699219 " fill-opacity="1" fill-rule="evenodd"/><path fill="#bd997e" d="M 297.570312 364.425781 C 303.605469 359.496094 316.230469 355.707031 330.628906 352.367188 C 352.582031 347.277344 378.632812 343.328125 392.398438 338.507812 C 392.984375 338.304688 393.292969 337.664062 393.089844 337.078125 C 392.886719 336.496094 392.246094 336.1875 391.660156 336.390625 C 377.945312 341.191406 351.988281 345.113281 330.125 350.183594 C 315.3125 353.617188 302.359375 357.617188 296.152344 362.6875 C 295.675781 363.078125 295.605469 363.785156 295.996094 364.265625 C 296.386719 364.746094 297.09375 364.820312 297.570312 364.425781 " fill-opacity="1" fill-rule="evenodd"/><path fill="#bd997e" d="M 410.804688 286.996094 C 430.179688 277.863281 440.558594 280.433594 458.40625 275.925781 C 469.269531 273.179688 484.492188 266.90625 496.082031 266.105469 C 496.703125 266.066406 497.167969 265.527344 497.125 264.910156 C 497.082031 264.292969 496.546875 263.824219 495.929688 263.867188 C 484.21875 264.675781 468.835938 270.976562 457.855469 273.75 C 439.851562 278.292969 429.394531 275.753906 409.851562 284.96875 C 409.289062 285.230469 409.046875 285.902344 409.3125 286.460938 C 409.578125 287.023438 410.242188 287.261719 410.804688 286.996094 " fill-opacity="1" fill-rule="evenodd"/><path fill="#bd997e" d="M 415.855469 294.929688 C 429.75 287.484375 454.855469 286.351562 463.484375 284.390625 C 474.300781 281.9375 487.996094 278.066406 497.738281 277.40625 C 498.355469 277.367188 498.824219 276.832031 498.78125 276.210938 C 498.738281 275.59375 498.203125 275.128906 497.585938 275.167969 C 487.75 275.835938 473.914062 279.722656 462.988281 282.203125 C 454.25 284.1875 428.859375 285.414062 414.796875 292.953125 C 414.25 293.242188 414.046875 293.921875 414.335938 294.46875 C 414.628906 295.011719 415.308594 295.21875 415.855469 294.929688 " fill-opacity="1" fill-rule="evenodd"/><path fill="#bd997e" d="M 415.671875 304.367188 C 427.902344 298.007812 442.617188 298.3125 456.074219 295.425781 C 468.699219 292.714844 487.820312 290.984375 502.925781 284.15625 C 503.488281 283.902344 503.738281 283.238281 503.484375 282.671875 C 503.230469 282.109375 502.566406 281.859375 502 282.113281 C 487.042969 288.871094 468.105469 290.550781 455.605469 293.230469 C 441.953125 296.15625 427.046875 295.925781 414.636719 302.375 C 414.085938 302.660156 413.875 303.339844 414.160156 303.886719 C 414.441406 304.4375 415.121094 304.652344 415.671875 304.367188 " fill-opacity="1" fill-rule="evenodd"/><path fill="#bd997e" d="M 432.179688 374.453125 C 448.386719 365.359375 461.136719 366.84375 477.320312 363.8125 C 490.578125 361.328125 503.15625 356.652344 516.203125 353.558594 C 516.804688 353.417969 517.179688 352.8125 517.035156 352.210938 C 516.894531 351.605469 516.289062 351.234375 515.6875 351.375 C 502.671875 354.460938 490.128906 359.128906 476.910156 361.605469 C 460.46875 364.6875 447.542969 363.261719 431.085938 372.496094 C 430.546875 372.796875 430.351562 373.480469 430.65625 374.023438 C 430.960938 374.5625 431.644531 374.757812 432.179688 374.453125 " fill-opacity="1" fill-rule="evenodd"/><path fill="#bd997e" d="M 432.773438 382.550781 C 454.855469 369.28125 489.644531 368.441406 514.296875 364.402344 C 514.910156 364.304688 515.324219 363.726562 515.222656 363.117188 C 515.125 362.503906 514.546875 362.089844 513.9375 362.191406 C 489.035156 366.273438 453.921875 367.226562 431.621094 380.625 C 431.089844 380.941406 430.914062 381.632812 431.234375 382.164062 C 431.554688 382.695312 432.242188 382.867188 432.773438 382.550781 " fill-opacity="1" fill-rule="evenodd"/><path fill="#bd997e" d="M 324.226562 397.957031 C 339.058594 396.570312 352.105469 391.640625 359.175781 389.644531 C 376.0625 384.875 389.144531 387.578125 407.585938 379.121094 C 408.148438 378.859375 408.394531 378.191406 408.136719 377.632812 C 407.878906 377.070312 407.214844 376.820312 406.652344 377.078125 C 388.339844 385.476562 375.339844 382.75 358.570312 387.484375 C 351.578125 389.457031 338.679688 394.351562 324.019531 395.722656 C 323.402344 395.78125 322.949219 396.328125 323.007812 396.945312 C 323.0625 397.5625 323.609375 398.015625 324.226562 397.957031 " fill-opacity="1" fill-rule="evenodd"/><path fill="#bd997e" d="M 326.527344 406.96875 C 326.875 406.832031 330.039062 405.597656 333.792969 404.515625 C 352.351562 399.164062 398.257812 388.523438 406.753906 387.855469 C 407.371094 387.808594 407.832031 387.265625 407.785156 386.648438 C 407.738281 386.035156 407.195312 385.570312 406.578125 385.621094 C 398.03125 386.292969 351.84375 396.980469 333.171875 402.359375 C 329.34375 403.460938 326.648438 404.363281 325.609375 404.902344 C 325.035156 405.207031 324.769531 405.546875 324.671875 405.75 C 324.410156 406.308594 324.648438 406.976562 325.207031 407.242188 C 325.667969 407.464844 326.207031 407.335938 326.527344 406.96875 " fill-opacity="1" fill-rule="evenodd"/><path fill="#bd997e" d="M 330.539062 411.660156 C 347.554688 410.332031 357.339844 407.183594 367.414062 404.054688 C 377.347656 400.96875 387.566406 397.90625 405.472656 396.695312 C 406.089844 396.652344 406.558594 396.117188 406.515625 395.5 C 406.476562 394.882812 405.941406 394.414062 405.324219 394.457031 C 387.171875 395.683594 376.816406 398.785156 366.75 401.914062 C 356.808594 405 347.152344 408.113281 330.367188 409.425781 C 329.75 409.46875 329.289062 410.011719 329.335938 410.628906 C 329.382812 411.246094 329.925781 411.707031 330.539062 411.660156 " fill-opacity="1" fill-rule="evenodd"/><path fill="#fc9797" d="M 335.015625 375.285156 C 334.769531 376.371094 330.710938 377.609375 326.347656 378.65625 C 325.042969 378.96875 323.707031 379.265625 322.441406 379.535156 C 319.359375 380.195312 316.675781 380.695312 315.75 380.90625 C 314.195312 381.269531 312.617188 381.617188 311.027344 381.960938 C 309.523438 382.285156 308.007812 382.609375 306.484375 382.929688 C 299.339844 384.441406 292.066406 385.945312 285.207031 387.898438 C 278.105469 389.914062 264.816406 394.085938 264.292969 392.726562 C 263.683594 391.140625 265.84375 389.414062 266.046875 388.910156 C 266.242188 388.421875 262.820312 388.53125 263.050781 387.632812 C 263.355469 386.441406 267.929688 384.792969 267.738281 384.429688 C 267.652344 384.269531 260.585938 385.882812 260.484375 384.304688 C 260.40625 383.152344 263.722656 381.167969 264.667969 380.480469 C 266.058594 379.46875 258.964844 380.316406 260.515625 377.855469 C 261.039062 377.027344 262.382812 376.101562 264.355469 375.117188 C 265.539062 374.527344 266.945312 373.914062 268.535156 373.285156 C 280.128906 368.714844 301.386719 363.414062 315.585938 360.449219 C 317.199219 360.113281 318.71875 359.808594 320.125 359.539062 C 325.917969 358.417969 329.746094 357.886719 329.886719 358.261719 C 330.4375 359.699219 325.824219 361.402344 326.042969 362.363281 C 326.257812 363.320312 330.671875 362.5 331.191406 364.023438 C 331.652344 365.367188 326.949219 366.992188 327.242188 368.007812 C 327.542969 369.042969 332.832031 367.425781 333.691406 369.035156 C 334.332031 370.230469 330.246094 371.773438 330.46875 372.816406 C 330.691406 373.855469 335.53125 373.058594 335.015625 375.285156 " fill-opacity="1" fill-rule="evenodd"/><path fill="#fff4e2" d="M 268.996094 374.570312 C 269.171875 376.019531 267.507812 376.828125 266.6875 376.882812 C 265.523438 376.957031 264.585938 376.085938 264.355469 375.117188 C 265.539062 374.527344 266.945312 373.914062 268.535156 373.285156 C 268.769531 373.613281 268.929688 374.042969 268.996094 374.570312 " fill-opacity="1" fill-rule="evenodd"/><path fill="#fff4e2" d="M 275.75 375.640625 C 274.46875 375.867188 273.910156 377.144531 274.011719 378.050781 C 274.132812 379.109375 275.128906 380.132812 276.382812 380.054688 C 277.199219 380.003906 278.863281 379.195312 278.683594 377.75 C 278.472656 376.023438 277.234375 375.382812 275.75 375.640625 " fill-opacity="1" fill-rule="evenodd"/><path fill="#fff4e2" d="M 285.066406 381.648438 C 283.78125 381.875 283.222656 383.148438 283.324219 384.058594 C 283.445312 385.117188 284.441406 386.144531 285.695312 386.0625 C 286.511719 386.007812 288.175781 385.199219 287.996094 383.753906 C 287.785156 382.027344 286.546875 381.386719 285.066406 381.648438 " fill-opacity="1" fill-rule="evenodd"/><path fill="#fff4e2" d="M 285.746094 369.414062 C 284.457031 369.636719 283.902344 370.914062 284.003906 371.824219 C 284.125 372.878906 285.121094 373.90625 286.375 373.824219 C 287.195312 373.773438 288.851562 372.964844 288.679688 371.519531 C 288.464844 369.792969 287.226562 369.152344 285.746094 369.414062 " fill-opacity="1" fill-rule="evenodd"/><path fill="#fff4e2" d="M 292.90625 374.722656 C 291.617188 374.949219 291.0625 376.226562 291.167969 377.132812 C 291.285156 378.191406 292.28125 379.21875 293.535156 379.140625 C 294.355469 379.085938 296.011719 378.277344 295.839844 376.832031 C 295.625 375.105469 294.386719 374.464844 292.90625 374.722656 " fill-opacity="1" fill-rule="evenodd"/><path fill="#fff4e2" d="M 299.347656 378.695312 C 298.058594 378.921875 297.503906 380.195312 297.609375 381.105469 C 297.730469 382.164062 298.722656 383.1875 299.976562 383.109375 C 300.796875 383.054688 302.453125 382.246094 302.28125 380.804688 C 302.070312 379.074219 300.828125 378.433594 299.347656 378.695312 " fill-opacity="1" fill-rule="evenodd"/><path fill="#fff4e2" d="M 300.917969 370.671875 C 299.628906 370.894531 299.074219 372.171875 299.179688 373.082031 C 299.296875 374.136719 300.292969 375.164062 301.546875 375.085938 C 302.367188 375.03125 304.027344 374.222656 303.847656 372.78125 C 303.640625 371.050781 302.398438 370.414062 300.917969 370.671875 " fill-opacity="1" fill-rule="evenodd"/><path fill="#fff4e2" d="M 295.050781 366.050781 C 293.765625 366.277344 293.207031 367.550781 293.3125 368.460938 C 293.433594 369.519531 294.425781 370.546875 295.679688 370.464844 C 296.5 370.414062 298.15625 369.601562 297.980469 368.160156 C 297.773438 366.429688 296.535156 365.792969 295.050781 366.050781 " fill-opacity="1" fill-rule="evenodd"/><path fill="#fff4e2" d="M 308.855469 365.183594 C 307.566406 365.410156 307.011719 366.6875 307.117188 367.59375 C 307.238281 368.652344 308.230469 369.679688 309.484375 369.597656 C 310.304688 369.546875 311.964844 368.738281 311.789062 367.292969 C 311.578125 365.5625 310.335938 364.925781 308.855469 365.183594 " fill-opacity="1" fill-rule="evenodd"/><path fill="#fff4e2" d="M 312.390625 373.335938 C 311.105469 373.5625 310.546875 374.835938 310.648438 375.746094 C 310.769531 376.804688 311.769531 377.832031 313.019531 377.75 C 313.839844 377.695312 315.5 376.886719 315.324219 375.445312 C 315.109375 373.714844 313.871094 373.078125 312.390625 373.335938 " fill-opacity="1" fill-rule="evenodd"/><path fill="#fff4e2" d="M 311.027344 381.960938 C 309.523438 382.285156 308.007812 382.609375 306.484375 382.929688 C 306.445312 382.804688 306.417969 382.679688 306.402344 382.554688 C 306.304688 381.644531 306.859375 380.371094 308.144531 380.144531 C 309.539062 379.898438 310.71875 380.449219 311.027344 381.960938 " fill-opacity="1" fill-rule="evenodd"/><path fill="#fff4e2" d="M 326.4375 377.886719 C 326.46875 378.167969 326.4375 378.421875 326.347656 378.65625 C 325.042969 378.96875 323.707031 379.265625 322.441406 379.535156 C 322.066406 379.164062 321.820312 378.683594 321.765625 378.1875 C 321.660156 377.28125 322.21875 376.003906 323.503906 375.78125 C 324.988281 375.519531 326.226562 376.160156 326.4375 377.886719 " fill-opacity="1" fill-rule="evenodd"/><path fill="#fff4e2" d="M 322.136719 363.460938 C 320.847656 363.6875 320.289062 364.964844 320.394531 365.871094 C 320.515625 366.929688 321.511719 367.957031 322.765625 367.875 C 323.582031 367.824219 325.242188 367.015625 325.066406 365.574219 C 324.855469 363.839844 323.617188 363.203125 322.136719 363.460938 " fill-opacity="1" fill-rule="evenodd"/><path fill="#fff4e2" d="M 320.253906 360.152344 C 320.429688 361.59375 318.773438 362.402344 317.953125 362.457031 C 316.699219 362.535156 315.703125 361.507812 315.585938 360.453125 L 315.585938 360.449219 C 317.199219 360.113281 318.71875 359.808594 320.125 359.539062 C 320.183594 359.726562 320.226562 359.929688 320.253906 360.152344 " fill-opacity="1" fill-rule="evenodd"/><path fill="#fff4e2" d="M 318.058594 369.1875 C 316.769531 369.414062 316.214844 370.6875 316.316406 371.597656 C 316.4375 372.65625 317.433594 373.683594 318.6875 373.601562 C 319.503906 373.546875 321.164062 372.738281 320.988281 371.300781 C 320.777344 369.566406 319.539062 368.929688 318.058594 369.1875 " fill-opacity="1" fill-rule="evenodd"/><path fill="#fff4e2" d="M 271.816406 383.484375 C 270.566406 383.703125 270.027344 384.941406 270.125 385.824219 C 270.246094 386.851562 271.210938 387.84375 272.425781 387.769531 C 273.222656 387.714844 274.832031 386.929688 274.660156 385.53125 C 274.457031 383.851562 273.253906 383.234375 271.816406 383.484375 " fill-opacity="1" fill-rule="evenodd"/><g clip-path="url(#be32531856)"><path fill="#f5a377" d="M 205.460938 559.195312 C 214.828125 542.070312 235.644531 493.441406 240.300781 485.382812 C 242.75 481.144531 237.539062 462.804688 225.429688 450.296875 C 218.363281 443 210.941406 435.089844 206.0625 427.28125 C 202.234375 421.160156 206.578125 406.601562 209.738281 399.589844 C 212.222656 394.078125 218.96875 392.445312 219.3125 392.296875 C 220.019531 391.992188 223.128906 388.628906 225.585938 387.289062 C 230.660156 384.519531 235.28125 385.476562 235.625 385.074219 C 236.710938 383.796875 238.492188 381.9375 241.613281 381.730469 C 254.863281 380.847656 263.71875 382.363281 267.832031 384.261719 C 270.25 385.378906 268.222656 388.085938 266.046875 389.074219 C 264.558594 389.746094 260.949219 390.800781 259.109375 390.851562 C 258.59375 390.863281 263.683594 395.730469 262.523438 398.816406 C 261.933594 400.394531 260.125 400.722656 256.152344 399.421875 C 252.390625 398.1875 248.355469 395.78125 248.421875 396.082031 C 249.261719 399.832031 251.78125 408.523438 252.003906 409.777344 C 252.179688 410.769531 259.773438 414.859375 264.382812 421.230469 C 264.609375 421.546875 268.640625 415.800781 270.210938 407.605469 C 273.464844 390.632812 281.046875 375.316406 284.199219 380.789062 C 288.316406 387.9375 283.667969 409.121094 283.75 417.484375 C 283.902344 433.027344 287.972656 449.941406 284.945312 465.558594 C 279.59375 493.152344 256.765625 541.945312 259.175781 564.664062 C 260.007812 572.476562 199.320312 570.414062 205.460938 559.195312 " fill-opacity="1" fill-rule="evenodd"/></g><path fill="#e8784e" d="M 257.910156 383.125 C 257.601562 384.296875 260.398438 386.144531 264.855469 386.601562 C 266.402344 386.757812 268.738281 385.816406 268.925781 385.042969 C 269.113281 384.257812 266.636719 383.132812 264.183594 382.542969 C 261.484375 381.894531 258.195312 382.042969 257.910156 383.125 " fill-opacity="1" fill-rule="evenodd"/><path fill="#e8784e" d="M 234.839844 384.605469 C 233.972656 386.53125 233.382812 389.796875 232.992188 393.601562 C 232.109375 402.261719 232.246094 413.742188 232.226562 417.960938 C 232.171875 428.605469 232.933594 434.96875 240.550781 438.417969 C 240.949219 438.601562 241.417969 438.425781 241.597656 438.023438 C 241.777344 437.628906 241.601562 437.160156 241.203125 436.980469 C 234.171875 433.789062 233.757812 427.800781 233.804688 417.96875 C 233.824219 413.773438 233.6875 402.367188 234.566406 393.761719 C 234.929688 390.167969 235.460938 387.070312 236.28125 385.25 C 236.460938 384.855469 236.285156 384.382812 235.882812 384.207031 C 235.488281 384.027344 235.019531 384.203125 234.839844 384.605469 " fill-opacity="1" fill-rule="evenodd"/><path fill="#e8784e" d="M 221.609375 390.761719 C 220.0625 396.925781 219.820312 409 219.210938 413.910156 C 218.582031 419.011719 221.714844 429.660156 226.796875 437.273438 C 228.570312 439.933594 230.476562 441.949219 233.21875 442.871094 C 233.628906 443.007812 234.078125 442.789062 234.214844 442.375 C 234.355469 441.960938 234.132812 441.511719 233.71875 441.371094 C 231.308594 440.5625 229.671875 438.738281 228.109375 436.398438 C 223.257812 429.121094 220.175781 418.980469 220.78125 414.105469 C 221.382812 409.238281 221.609375 397.257812 223.140625 391.148438 C 223.246094 390.722656 222.988281 390.296875 222.566406 390.1875 C 222.144531 390.082031 221.714844 390.339844 221.609375 390.761719 " fill-opacity="1" fill-rule="evenodd"/><path fill="#e8784e" d="M 212.65625 395.839844 C 211.9375 402.714844 210.148438 418.609375 210.65625 422.46875 C 211.289062 427.292969 215.785156 435.039062 219.546875 440.714844 C 220.480469 442.117188 221.96875 443.691406 223.527344 444.742188 C 224.648438 445.5 225.816406 445.976562 226.851562 446.007812 C 227.289062 446.019531 227.648438 445.679688 227.664062 445.242188 C 227.675781 444.804688 227.332031 444.441406 226.894531 444.429688 C 226.113281 444.40625 225.253906 444 224.410156 443.429688 C 223.019531 442.496094 221.695312 441.089844 220.863281 439.839844 C 217.234375 434.363281 212.832031 426.921875 212.222656 422.265625 C 211.722656 418.457031 213.519531 402.785156 214.226562 396.003906 C 214.273438 395.570312 213.957031 395.183594 213.523438 395.136719 C 213.089844 395.089844 212.699219 395.40625 212.65625 395.839844 " fill-opacity="1" fill-rule="evenodd"/><path fill="#e8784e" d="M 248.300781 391.757812 C 248.136719 391.648438 247.988281 391.628906 247.953125 391.628906 C 247.757812 391.609375 247.578125 391.660156 247.410156 391.785156 C 247.3125 391.859375 247.167969 391.988281 247.113281 392.257812 C 247.070312 392.46875 247.085938 392.675781 247.21875 392.871094 C 247.558594 394.046875 248.773438 399.519531 249.0625 400.515625 C 250.542969 405.671875 250.253906 412.292969 250.667969 415.089844 C 250.730469 415.523438 251.132812 415.820312 251.5625 415.757812 C 251.996094 415.695312 252.292969 415.292969 252.226562 414.859375 C 251.808594 412.023438 252.082031 405.304688 250.578125 400.082031 C 250.34375 399.253906 249.46875 395.378906 248.976562 393.378906 C 249.300781 393.382812 249.675781 393.378906 250.097656 393.363281 C 254.015625 393.214844 262.082031 392.160156 266.164062 389.675781 C 268.210938 388.433594 269.296875 386.816406 268.878906 384.894531 C 268.789062 384.46875 268.367188 384.199219 267.941406 384.289062 C 267.515625 384.382812 267.242188 384.800781 267.335938 385.230469 C 267.507812 386.03125 267.210938 386.722656 266.628906 387.332031 C 265.917969 388.074219 264.824219 388.695312 263.53125 389.226562 C 259.386719 390.929688 253.25 391.660156 250.039062 391.78125 C 249.253906 391.8125 248.519531 391.769531 248.300781 391.757812 " fill-opacity="1" fill-rule="evenodd"/><path fill="#e9784e" d="M 283.644531 379.976562 C 282.335938 379.816406 281.140625 383.570312 281.199219 385.792969 C 281.25 387.789062 282.585938 392.042969 284.285156 391.910156 C 285.972656 391.785156 286.222656 387.117188 286.125 384.625 C 286.023438 381.980469 284.734375 380.109375 283.644531 379.976562 " fill-opacity="1" fill-rule="evenodd"/><path fill="#ffac80" d="M 508.855469 416.976562 C 507.269531 430.390625 501.996094 484.21875 498.125 472.964844 C 491.4375 453.53125 483.480469 428.457031 477.953125 415.140625 C 471.265625 399.011719 472.992188 379.261719 480.71875 363.050781 C 491.984375 339.425781 502.980469 383.488281 507.671875 392.476562 C 511.457031 399.722656 509.824219 408.859375 508.855469 416.976562 " fill-opacity="1" fill-rule="evenodd"/><path fill="#cb442d" d="M 486.144531 482.308594 C 485.855469 463.714844 485.09375 354.523438 484.972656 331.1875 C 484.949219 326.4375 487.476562 311.488281 487.734375 311.285156 C 489.050781 310.269531 491.652344 328.339844 491.828125 330.507812 C 493.367188 349.859375 495.539062 463.078125 496.148438 483.328125 C 496.261719 487.242188 486.191406 485.660156 486.144531 482.308594 " fill-opacity="1" fill-rule="evenodd"/><g clip-path="url(#7090827ce6)"><path fill="#ffac80" d="M 532.8125 391.03125 C 532.53125 386.089844 531.957031 382.246094 531.398438 379.25 C 531 377.128906 529.148438 373.433594 529.453125 373.070312 C 529.566406 372.933594 531.933594 375.285156 533.308594 376.210938 C 535.660156 377.800781 537.574219 377.472656 537.976562 378.214844 C 538.207031 378.644531 532.8125 391.03125 532.8125 391.03125 Z M 515.832031 542.886719 C 510.867188 532.191406 502.296875 486.578125 496.605469 468.292969 C 495.078125 463.375 498.753906 446.300781 498.992188 434.363281 C 499.222656 422.769531 497.367188 391.683594 498.632812 382.390625 C 499.402344 376.761719 490.78125 363.832031 488.640625 346.53125 C 487.574219 337.894531 489.6875 333.042969 492.71875 335.691406 C 494.777344 337.492188 503.113281 354.953125 503.964844 356.046875 C 504.636719 356.914062 506.21875 353.921875 509.226562 354.910156 C 512.507812 355.984375 514.320312 358.355469 514.59375 358.339844 C 515.332031 358.296875 517.320312 355.859375 520.554688 357.046875 C 524.023438 358.320312 525.785156 361.792969 526.929688 361.925781 C 534.363281 362.78125 550.140625 365.246094 551.394531 371.777344 C 554.359375 387.1875 538.667969 405.703125 532.601562 420.375 C 530.800781 424.730469 529.8125 429.09375 530.386719 433.484375 C 532.011719 445.972656 556.136719 497.035156 562.433594 513.359375 C 569.058594 530.527344 521.019531 554.066406 515.832031 542.886719 " fill-opacity="1" fill-rule="evenodd"/></g><path fill="#eb8955" d="M 494.363281 340.558594 C 497.4375 346.140625 512.554688 373.382812 513.96875 382.429688 C 515.359375 391.304688 513.566406 402.398438 512.144531 406.304688 C 511.972656 406.777344 512.214844 407.300781 512.6875 407.472656 C 513.164062 407.644531 513.6875 407.398438 513.855469 406.929688 C 515.332031 402.871094 517.214844 391.363281 515.773438 382.144531 C 514.335938 372.976562 499.074219 345.335938 495.957031 339.679688 C 495.714844 339.238281 495.160156 339.078125 494.71875 339.320312 C 494.277344 339.5625 494.117188 340.121094 494.363281 340.558594 " fill-opacity="1" fill-rule="evenodd"/><path fill="#eb8955" d="M 513.359375 358.703125 C 517.757812 364.867188 521.402344 379.671875 522.511719 383.257812 C 523.9375 387.886719 524.929688 399.292969 521.980469 406.339844 C 521.785156 406.808594 522.003906 407.34375 522.46875 407.535156 C 522.933594 407.730469 523.46875 407.511719 523.660156 407.046875 C 526.773438 399.617188 525.753906 387.59375 524.253906 382.71875 C 523.121094 379.054688 519.339844 363.9375 514.84375 357.640625 C 514.550781 357.230469 513.980469 357.136719 513.570312 357.429688 C 513.164062 357.722656 513.066406 358.292969 513.359375 358.703125 " fill-opacity="1" fill-rule="evenodd"/><path fill="#eb8955" d="M 519.019531 358.191406 C 521.183594 358.445312 522.929688 360.273438 524.375 362.589844 C 526.734375 366.363281 528.226562 371.488281 528.921875 374.421875 C 530.195312 379.8125 532.078125 388.246094 531.855469 396.3125 C 531.710938 401.558594 530.679688 406.652344 527.9375 410.589844 C 527.648438 411 527.75 411.570312 528.164062 411.859375 C 528.574219 412.144531 529.144531 412.042969 529.433594 411.632812 C 532.371094 407.421875 533.523438 401.980469 533.675781 396.363281 C 533.90625 388.125 532 379.507812 530.695312 374.003906 C 529.96875 370.929688 528.390625 365.574219 525.921875 361.621094 C 524.144531 358.785156 521.886719 356.6875 519.230469 356.378906 C 518.730469 356.320312 518.277344 356.679688 518.21875 357.179688 C 518.160156 357.679688 518.519531 358.136719 519.019531 358.191406 " fill-opacity="1" fill-rule="evenodd"/><path fill="#eb8955" d="M 491.796875 334.839844 C 490.914062 335.128906 492.207031 339.75 492.859375 341.003906 C 494.058594 343.320312 496.726562 346.457031 497.816406 345.832031 C 498.324219 345.539062 498.511719 343.332031 496.4375 339.636719 C 494.394531 335.996094 492.351562 334.65625 491.796875 334.839844 " fill-opacity="1" fill-rule="evenodd"/><path fill="#eb8956" d="M 499.585938 386.984375 C 499.59375 387.046875 499.605469 387.253906 499.597656 387.40625 C 499.554688 388.019531 499.390625 388.898438 499.164062 389.96875 C 498.230469 394.410156 496.292969 401.964844 497.074219 408.339844 C 497.136719 408.839844 497.59375 409.199219 498.09375 409.132812 C 498.59375 409.074219 498.945312 408.621094 498.886719 408.117188 C 498.128906 401.945312 500.042969 394.640625 500.949219 390.34375 C 501.242188 388.945312 501.429688 387.84375 501.425781 387.15625 C 501.421875 386.65625 501.308594 386.292969 501.164062 386.066406 C 497.8125 380.820312 494.300781 366.636719 494.148438 366.273438 C 493.238281 364.109375 487.996094 349.792969 489.5625 339.257812 C 489.636719 338.761719 489.292969 338.296875 488.792969 338.222656 C 488.296875 338.148438 487.832031 338.496094 487.757812 338.992188 C 486.136719 349.902344 491.523438 364.738281 492.46875 366.980469 C 492.621094 367.347656 496.203125 381.613281 499.585938 386.984375 " fill-opacity="1" fill-rule="evenodd"/><path fill="#ffca8d" d="M 490.621094 321.921875 C 490.792969 322.785156 485.78125 322.761719 485.863281 322.089844 C 486.105469 320.03125 487.515625 310.488281 488.039062 310.476562 C 488.769531 310.457031 489.976562 318.648438 490.621094 321.921875 " fill-opacity="1" fill-rule="evenodd"/><path fill="#ffcd71" d="M 431.144531 230.140625 C 430.246094 230.253906 438.15625 243.863281 442.5 249.054688 C 451.691406 260.046875 462.25 264.28125 464 263.832031 C 467.796875 262.863281 497.199219 250.746094 493.785156 249.808594 C 490.136719 248.8125 479.96875 246.722656 473.789062 241.265625 C 463.585938 232.253906 462.121094 225.933594 461.410156 226.117188 C 455.277344 227.691406 436.128906 229.511719 431.144531 230.140625 " fill-opacity="1" fill-rule="evenodd"/><path fill="#e5a34f" d="M 439.621094 238.890625 C 440.917969 237.496094 441.90625 236.898438 442.777344 236.765625 C 443.621094 236.632812 444.332031 236.945312 445.078125 237.296875 C 446.234375 237.84375 447.453125 238.488281 449.164062 238.257812 C 450.246094 238.117188 450.859375 237.554688 451.417969 236.960938 C 451.871094 236.480469 452.28125 235.96875 453.019531 235.789062 C 453.894531 235.574219 454.367188 235.707031 454.796875 235.835938 C 455.34375 236 455.835938 236.144531 456.742188 235.820312 C 458.363281 235.25 461.011719 233.882812 462.953125 231.949219 C 463.105469 231.796875 463.105469 231.546875 462.953125 231.390625 C 462.800781 231.234375 462.550781 231.234375 462.394531 231.386719 C 460.546875 233.230469 458.023438 234.527344 456.476562 235.078125 C 455.800781 235.316406 455.429688 235.199219 455.015625 235.078125 C 454.492188 234.921875 453.910156 234.757812 452.828125 235.019531 C 451.925781 235.242188 451.402344 235.832031 450.84375 236.417969 C 450.398438 236.894531 449.921875 237.363281 449.058594 237.476562 C 447.527344 237.683594 446.445312 237.070312 445.417969 236.582031 C 444.527344 236.164062 443.667969 235.828125 442.65625 235.984375 C 441.667969 236.136719 440.515625 236.769531 439.042969 238.347656 C 438.890625 238.507812 438.902344 238.761719 439.0625 238.910156 C 439.21875 239.054688 439.46875 239.046875 439.621094 238.890625 " fill-opacity="1" fill-rule="evenodd"/><path fill="#e5a34f" d="M 444.746094 244.933594 C 445.1875 244.167969 445.855469 243.929688 446.660156 243.78125 C 447.605469 243.609375 448.71875 243.558594 449.933594 243.179688 C 451.074219 242.816406 451.828125 242.359375 452.589844 241.890625 C 453.308594 241.445312 454.039062 240.992188 455.167969 240.613281 C 456.527344 240.152344 457.3125 240.402344 458.117188 240.546875 C 459.042969 240.710938 459.996094 240.773438 461.652344 239.796875 C 462.296875 239.414062 462.570312 238.835938 462.871094 238.21875 C 463.230469 237.484375 463.667969 236.710938 465.332031 236.398438 C 465.546875 236.355469 465.6875 236.152344 465.648438 235.9375 C 465.605469 235.722656 465.398438 235.582031 465.1875 235.621094 C 463.136719 236.007812 462.605469 236.964844 462.164062 237.871094 C 461.929688 238.347656 461.75 238.820312 461.25 239.113281 C 459.542969 240.125 458.714844 239.851562 457.738281 239.671875 C 456.988281 239.535156 456.160156 239.441406 454.914062 239.863281 C 453.71875 240.265625 452.941406 240.746094 452.179688 241.214844 C 451.464844 241.65625 450.761719 242.089844 449.695312 242.425781 C 448.519531 242.796875 447.433594 242.839844 446.519531 243.003906 C 445.472656 243.199219 444.632812 243.546875 444.0625 244.539062 C 443.953125 244.726562 444.019531 244.96875 444.210938 245.078125 C 444.398438 245.1875 444.640625 245.121094 444.746094 244.933594 " fill-opacity="1" fill-rule="evenodd"/><path fill="#e5a34f" d="M 448.902344 249.335938 C 451.710938 249.121094 453.269531 248.101562 454.671875 247.15625 C 455.539062 246.570312 456.339844 246.011719 457.382812 245.738281 C 458.554688 245.425781 459.683594 245.5 460.804688 245.5 C 462.019531 245.5 463.222656 245.421875 464.46875 244.800781 C 465.621094 244.222656 466.546875 243.378906 467.472656 242.535156 C 468.347656 241.734375 469.214844 240.929688 470.308594 240.386719 C 470.503906 240.285156 470.582031 240.046875 470.484375 239.851562 C 470.390625 239.65625 470.152344 239.578125 469.957031 239.675781 C 468.796875 240.253906 467.867188 241.101562 466.941406 241.949219 C 466.070312 242.75 465.203125 243.546875 464.113281 244.09375 C 462.992188 244.65625 461.902344 244.710938 460.804688 244.710938 C 459.617188 244.710938 458.421875 244.644531 457.183594 244.972656 C 456.050781 245.269531 455.171875 245.863281 454.230469 246.5 C 452.917969 247.386719 451.46875 248.347656 448.84375 248.550781 C 448.625 248.566406 448.460938 248.753906 448.476562 248.972656 C 448.496094 249.191406 448.683594 249.351562 448.902344 249.335938 " fill-opacity="1" fill-rule="evenodd"/><path fill="#e5a34f" d="M 475.679688 251.476562 C 476.304688 252.3125 476.8125 252.839844 477.214844 253.136719 C 477.554688 253.386719 477.847656 253.484375 478.09375 253.488281 C 478.5625 253.5 478.933594 253.191406 479.171875 252.601562 C 479.5625 251.640625 479.644531 249.808594 479.957031 248.335938 C 480 248.121094 479.863281 247.910156 479.652344 247.867188 C 479.433594 247.824219 479.226562 247.957031 479.183594 248.171875 C 478.921875 249.410156 478.832031 250.90625 478.574219 251.898438 C 478.5 252.175781 478.414062 252.410156 478.300781 252.566406 C 478.246094 252.644531 478.195312 252.699219 478.109375 252.699219 C 477.988281 252.699219 477.851562 252.621094 477.679688 252.5 C 477.316406 252.234375 476.871094 251.75 476.3125 251.003906 C 476.179688 250.832031 475.933594 250.792969 475.757812 250.925781 C 475.585938 251.054688 475.550781 251.300781 475.679688 251.476562 " fill-opacity="1" fill-rule="evenodd"/><path fill="#feccc2" d="M 348.765625 262.296875 C 348.738281 262.488281 348.675781 262.675781 348.585938 262.859375 C 348.480469 263.074219 348.332031 263.285156 348.140625 263.488281 C 347.835938 263.8125 347.382812 264.125 346.847656 264.402344 C 346.671875 264.5 346.480469 264.585938 346.28125 264.671875 C 345.925781 264.824219 345.550781 264.964844 345.160156 265.078125 C 344.949219 265.140625 344.738281 265.195312 344.523438 265.25 C 344.511719 265.25 344.5 265.253906 344.488281 265.257812 C 344.152344 265.332031 343.816406 265.394531 343.484375 265.433594 C 343.238281 265.464844 342.996094 265.488281 342.757812 265.5 C 342.109375 265.53125 341.507812 265.484375 341.015625 265.351562 C 340.945312 265.335938 340.875 265.3125 340.808594 265.289062 C 340.621094 265.226562 340.449219 265.152344 340.296875 265.0625 C 339.785156 264.769531 339.449219 264.347656 339.308594 263.824219 C 339.25 263.613281 339.195312 263.386719 339.132812 263.140625 C 339.132812 263.136719 339.132812 263.136719 339.132812 263.136719 C 339.082031 262.921875 339.027344 262.695312 338.972656 262.453125 C 338.878906 262.03125 338.78125 261.574219 338.683594 261.09375 C 338.644531 260.902344 338.605469 260.714844 338.566406 260.519531 C 338.488281 260.121094 338.40625 259.703125 338.328125 259.28125 C 338.292969 259.097656 338.253906 258.910156 338.21875 258.722656 C 338.160156 258.390625 338.101562 258.058594 338.039062 257.714844 C 338 257.507812 337.960938 257.296875 337.925781 257.082031 C 337.859375 256.707031 337.792969 256.328125 337.730469 255.945312 C 337.691406 255.738281 337.652344 255.53125 337.621094 255.324219 C 337.554688 254.941406 337.492188 254.5625 337.425781 254.179688 C 337.390625 253.953125 337.351562 253.730469 337.316406 253.503906 C 337.261719 253.164062 337.207031 252.824219 337.152344 252.488281 C 337.113281 252.257812 337.078125 252.027344 337.039062 251.800781 C 336.96875 251.367188 336.902344 250.9375 336.839844 250.519531 C 336.800781 250.289062 336.765625 250.0625 336.730469 249.839844 C 336.660156 249.371094 336.585938 248.917969 336.523438 248.488281 L 336.523438 248.484375 C 336.488281 248.257812 336.453125 248.042969 336.421875 247.824219 C 336.359375 247.398438 336.292969 246.996094 336.238281 246.617188 C 336.207031 246.386719 336.175781 246.167969 336.140625 245.960938 L 336.140625 245.957031 C 336.078125 245.5 336.015625 245.097656 335.96875 244.761719 C 335.964844 244.746094 335.960938 244.726562 335.957031 244.714844 C 335.929688 244.511719 335.925781 244.320312 335.933594 244.132812 C 335.996094 243.296875 336.457031 242.609375 337.113281 242.117188 C 337.304688 241.972656 337.507812 241.847656 337.722656 241.738281 C 338.316406 241.441406 338.996094 241.28125 339.65625 241.285156 C 339.710938 241.285156 339.765625 241.285156 339.820312 241.289062 C 340.015625 241.292969 340.203125 241.316406 340.386719 241.355469 C 341.441406 241.5625 342.242188 242.222656 342.410156 243.25 C 342.417969 243.285156 342.421875 243.320312 342.425781 243.359375 C 342.445312 243.515625 342.472656 243.710938 342.507812 243.945312 C 342.507812 243.949219 342.507812 243.949219 342.507812 243.949219 C 342.554688 244.246094 342.617188 244.609375 342.6875 245.015625 C 342.722656 245.214844 342.757812 245.425781 342.800781 245.648438 C 342.863281 245.988281 342.929688 246.347656 343 246.726562 C 343.035156 246.921875 343.074219 247.121094 343.113281 247.324219 C 343.175781 247.660156 343.246094 248.007812 343.3125 248.363281 C 343.351562 248.5625 343.386719 248.765625 343.429688 248.964844 C 343.5 249.328125 343.570312 249.691406 343.640625 250.058594 C 343.683594 250.253906 343.71875 250.453125 343.757812 250.652344 C 343.839844 251.066406 343.921875 251.476562 344 251.878906 C 344.042969 252.078125 344.082031 252.269531 344.117188 252.457031 C 344.191406 252.824219 344.257812 253.175781 344.328125 253.515625 C 344.371094 253.726562 344.414062 253.933594 344.453125 254.136719 C 344.523438 254.484375 344.589844 254.8125 344.652344 255.109375 C 344.757812 255.636719 344.414062 256.148438 343.890625 256.253906 C 343.367188 256.363281 342.855469 256.019531 342.746094 255.496094 C 342.710938 255.296875 342.667969 255.085938 342.621094 254.867188 C 342.589844 254.707031 342.558594 254.546875 342.523438 254.378906 C 342.441406 253.972656 342.355469 253.542969 342.269531 253.09375 C 342.234375 252.933594 342.203125 252.765625 342.167969 252.601562 C 342.085938 252.183594 342 251.757812 341.914062 251.324219 C 341.882812 251.160156 341.851562 250.996094 341.820312 250.832031 C 341.742188 250.4375 341.664062 250.039062 341.585938 249.644531 C 341.554688 249.480469 341.523438 249.316406 341.492188 249.152344 C 341.414062 248.761719 341.339844 248.367188 341.265625 247.988281 C 341.234375 247.824219 341.203125 247.660156 341.171875 247.496094 C 341.101562 247.101562 341.027344 246.722656 340.960938 246.363281 C 340.929688 246.195312 340.898438 246.035156 340.871094 245.875 C 340.796875 245.445312 340.726562 245.054688 340.667969 244.707031 C 340.636719 244.53125 340.613281 244.371094 340.589844 244.222656 C 340.546875 243.964844 340.519531 243.753906 340.496094 243.585938 C 340.484375 243.46875 340.398438 243.398438 340.300781 243.351562 C 340.289062 243.339844 340.277344 243.339844 340.265625 243.332031 C 340.132812 243.277344 339.980469 243.242188 339.820312 243.230469 C 339.765625 243.226562 339.710938 243.222656 339.652344 243.222656 C 339.535156 243.222656 339.417969 243.230469 339.300781 243.25 C 339.140625 243.269531 338.972656 243.308594 338.816406 243.363281 C 338.621094 243.429688 338.433594 243.527344 338.273438 243.644531 C 338.203125 243.695312 338.140625 243.75 338.085938 243.808594 C 337.96875 243.9375 337.890625 244.085938 337.875 244.265625 C 337.871094 244.320312 337.871094 244.375 337.882812 244.433594 C 337.914062 244.675781 337.957031 244.953125 338.003906 245.261719 C 338.023438 245.414062 338.046875 245.578125 338.074219 245.75 C 338.132812 246.164062 338.203125 246.625 338.277344 247.113281 C 338.300781 247.273438 338.324219 247.4375 338.351562 247.601562 C 338.417969 248.0625 338.496094 248.554688 338.570312 249.0625 C 338.597656 249.222656 338.621094 249.386719 338.648438 249.550781 C 338.71875 250.023438 338.796875 250.511719 338.875 251.007812 C 338.902344 251.167969 338.929688 251.332031 338.953125 251.492188 C 339.019531 251.902344 339.085938 252.3125 339.152344 252.726562 C 339.179688 252.890625 339.207031 253.050781 339.230469 253.210938 C 339.308594 253.679688 339.386719 254.148438 339.464844 254.613281 C 339.492188 254.777344 339.519531 254.941406 339.546875 255.101562 C 339.617188 255.519531 339.6875 255.9375 339.765625 256.347656 C 339.789062 256.511719 339.820312 256.671875 339.851562 256.832031 C 339.929688 257.285156 340.007812 257.726562 340.089844 258.160156 C 340.121094 258.332031 340.148438 258.5 340.179688 258.664062 C 340.257812 259.082031 340.339844 259.488281 340.417969 259.882812 C 340.449219 260.046875 340.480469 260.210938 340.515625 260.375 C 340.59375 260.757812 340.667969 261.128906 340.746094 261.476562 C 340.777344 261.640625 340.8125 261.800781 340.847656 261.957031 C 340.941406 262.355469 341.027344 262.730469 341.113281 263.0625 C 341.136719 263.152344 341.15625 263.238281 341.179688 263.320312 C 341.195312 263.375 341.253906 263.378906 341.308594 263.402344 C 341.34375 263.417969 341.382812 263.433594 341.417969 263.449219 C 341.539062 263.492188 341.675781 263.515625 341.820312 263.539062 C 341.914062 263.550781 342.007812 263.558594 342.109375 263.5625 C 342.269531 263.574219 342.429688 263.574219 342.597656 263.566406 C 342.902344 263.558594 343.222656 263.519531 343.546875 263.464844 C 343.703125 263.4375 343.867188 263.40625 344.027344 263.367188 C 344.046875 263.363281 344.066406 263.363281 344.085938 263.355469 C 344.445312 263.273438 344.792969 263.167969 345.128906 263.050781 C 345.285156 262.992188 345.4375 262.933594 345.582031 262.867188 C 345.832031 262.757812 346.0625 262.640625 346.265625 262.511719 C 346.335938 262.46875 346.402344 262.425781 346.464844 262.382812 C 346.566406 262.304688 346.660156 262.230469 346.734375 262.152344 C 346.765625 262.121094 346.796875 262.070312 346.820312 262.035156 C 346.828125 262.023438 346.835938 262.011719 346.839844 262.007812 C 346.808594 261.644531 346.757812 261.199219 346.683594 260.6875 C 346.664062 260.527344 346.640625 260.363281 346.617188 260.191406 C 346.550781 259.742188 346.472656 259.25 346.386719 258.726562 C 346.359375 258.5625 346.332031 258.394531 346.304688 258.226562 C 346.230469 257.800781 346.15625 257.359375 346.074219 256.902344 C 346.046875 256.742188 346.015625 256.578125 345.988281 256.414062 C 345.910156 255.976562 345.824219 255.523438 345.738281 255.066406 C 345.710938 254.902344 345.683594 254.738281 345.652344 254.574219 C 345.554688 254.070312 345.457031 253.558594 345.359375 253.035156 C 345.328125 252.871094 345.296875 252.703125 345.261719 252.535156 C 345.183594 252.132812 345.105469 251.722656 345.023438 251.3125 C 344.992188 251.148438 344.960938 250.980469 344.929688 250.816406 C 344.84375 250.386719 344.757812 249.957031 344.671875 249.523438 C 344.640625 249.359375 344.605469 249.195312 344.574219 249.03125 C 344.484375 248.59375 344.398438 248.160156 344.3125 247.726562 C 344.277344 247.558594 344.242188 247.390625 344.207031 247.222656 C 344.125 246.8125 344.042969 246.40625 343.957031 246.003906 C 343.925781 245.835938 343.890625 245.667969 343.855469 245.5 C 343.773438 245.109375 343.691406 244.71875 343.617188 244.34375 C 343.582031 244.175781 343.550781 244.011719 343.515625 243.847656 C 343.429688 243.445312 343.347656 243.058594 343.269531 242.679688 C 343.234375 242.511719 343.199219 242.347656 343.164062 242.183594 C 343.082031 241.785156 343 241.40625 342.925781 241.046875 C 342.886719 240.878906 342.855469 240.710938 342.820312 240.554688 C 342.738281 240.171875 342.664062 239.820312 342.59375 239.511719 C 342.558594 239.339844 342.523438 239.179688 342.492188 239.03125 C 342.445312 238.824219 342.40625 238.636719 342.371094 238.476562 C 342.347656 238.378906 342.300781 238.300781 342.234375 238.238281 C 342.132812 238.128906 341.980469 238.058594 341.8125 237.996094 C 341.777344 237.984375 341.746094 237.972656 341.710938 237.960938 C 341.507812 237.894531 341.289062 237.847656 341.054688 237.820312 C 340.898438 237.796875 340.734375 237.789062 340.570312 237.78125 C 340.253906 237.769531 339.921875 237.785156 339.582031 237.820312 C 339.453125 237.832031 339.324219 237.84375 339.195312 237.867188 C 339.035156 237.886719 338.875 237.914062 338.714844 237.945312 C 338.339844 238.019531 337.960938 238.113281 337.59375 238.230469 C 337.4375 238.277344 337.285156 238.332031 337.132812 238.386719 C 336.789062 238.515625 336.460938 238.660156 336.152344 238.824219 C 336.007812 238.898438 335.867188 238.980469 335.730469 239.066406 C 335.5625 239.171875 335.402344 239.285156 335.25 239.402344 C 335.164062 239.472656 335.078125 239.546875 335 239.621094 C 334.871094 239.730469 334.757812 239.851562 334.660156 239.976562 C 334.433594 240.269531 334.292969 240.589844 334.304688 240.945312 C 334.308594 241.0625 334.316406 241.199219 334.324219 241.347656 C 334.335938 241.503906 334.347656 241.675781 334.367188 241.863281 C 334.402344 242.25 334.453125 242.699219 334.519531 243.210938 C 334.539062 243.382812 334.558594 243.554688 334.582031 243.734375 C 334.636719 244.136719 334.695312 244.570312 334.757812 245.027344 C 334.78125 245.203125 334.808594 245.378906 334.835938 245.558594 C 334.902344 246.003906 334.96875 246.472656 335.042969 246.957031 C 335.070312 247.136719 335.097656 247.3125 335.128906 247.496094 C 335.195312 247.953125 335.269531 248.421875 335.347656 248.90625 C 335.375 249.082031 335.402344 249.257812 335.433594 249.4375 C 335.492188 249.808594 335.554688 250.191406 335.621094 250.582031 C 335.648438 250.757812 335.675781 250.933594 335.707031 251.113281 C 335.78125 251.554688 335.855469 252.003906 335.933594 252.464844 C 335.960938 252.644531 335.992188 252.828125 336.023438 253.015625 C 336.09375 253.417969 336.164062 253.824219 336.234375 254.238281 C 336.265625 254.417969 336.292969 254.597656 336.328125 254.78125 C 336.410156 255.253906 336.492188 255.734375 336.578125 256.21875 C 336.609375 256.402344 336.640625 256.585938 336.675781 256.769531 C 336.75 257.203125 336.828125 257.632812 336.90625 258.070312 C 336.9375 258.25 336.96875 258.433594 337 258.613281 C 337.09375 259.132812 337.1875 259.652344 337.285156 260.175781 C 337.378906 260.703125 337.027344 261.207031 336.5 261.304688 C 335.976562 261.402344 335.46875 261.050781 335.375 260.523438 C 335.253906 259.859375 335.136719 259.199219 335.019531 258.546875 C 334.988281 258.382812 334.960938 258.222656 334.933594 258.0625 C 334.847656 257.589844 334.769531 257.121094 334.683594 256.65625 C 334.660156 256.496094 334.628906 256.335938 334.601562 256.175781 C 334.515625 255.6875 334.433594 255.199219 334.347656 254.71875 C 334.324219 254.554688 334.292969 254.394531 334.269531 254.234375 C 334.191406 253.785156 334.117188 253.339844 334.042969 252.90625 C 334.015625 252.742188 333.988281 252.582031 333.960938 252.421875 C 333.886719 251.980469 333.8125 251.546875 333.746094 251.121094 C 333.71875 250.953125 333.691406 250.789062 333.664062 250.628906 C 333.597656 250.222656 333.535156 249.820312 333.472656 249.433594 C 333.445312 249.265625 333.421875 249.105469 333.394531 248.945312 C 333.3125 248.421875 333.234375 247.914062 333.160156 247.429688 C 333.132812 247.261719 333.109375 247.097656 333.085938 246.9375 C 333.011719 246.445312 332.941406 245.976562 332.878906 245.527344 C 332.855469 245.359375 332.832031 245.195312 332.808594 245.035156 C 332.746094 244.578125 332.6875 244.148438 332.636719 243.75 C 332.613281 243.582031 332.59375 243.414062 332.574219 243.253906 C 332.511719 242.746094 332.464844 242.300781 332.425781 241.917969 C 332.410156 241.730469 332.398438 241.5625 332.386719 241.40625 C 332.375 241.257812 332.367188 241.121094 332.367188 241.003906 C 332.347656 240.417969 332.496094 239.851562 332.78125 239.332031 C 332.875 239.164062 332.980469 239 333.097656 238.839844 C 333.355469 238.5 333.675781 238.175781 334.050781 237.878906 C 334.097656 237.839844 334.152344 237.800781 334.203125 237.761719 C 334.355469 237.648438 334.519531 237.539062 334.683594 237.433594 C 335.074219 237.191406 335.5 236.972656 335.949219 236.777344 C 336.125 236.703125 336.300781 236.632812 336.480469 236.566406 C 336.917969 236.402344 337.375 236.261719 337.832031 236.152344 C 338.019531 236.109375 338.207031 236.066406 338.394531 236.035156 C 338.726562 235.96875 339.0625 235.917969 339.390625 235.886719 C 339.636719 235.859375 339.878906 235.847656 340.117188 235.84375 C 340.308594 235.835938 340.496094 235.835938 340.679688 235.847656 C 341.199219 235.871094 341.679688 235.9375 342.109375 236.054688 C 342.308594 236.109375 342.496094 236.175781 342.667969 236.253906 C 342.726562 236.273438 342.777344 236.300781 342.832031 236.328125 C 343.507812 236.660156 343.976562 237.15625 344.191406 237.792969 C 344.222656 237.878906 344.246094 237.96875 344.265625 238.058594 C 344.292969 238.183594 344.324219 238.328125 344.359375 238.488281 C 344.441406 238.859375 344.539062 239.316406 344.652344 239.839844 C 344.691406 240.023438 344.730469 240.210938 344.773438 240.410156 C 344.847656 240.753906 344.921875 241.117188 345.003906 241.503906 L 345.003906 241.507812 C 345.042969 241.6875 345.082031 241.875 345.121094 242.066406 C 345.195312 242.421875 345.269531 242.789062 345.351562 243.167969 C 345.390625 243.351562 345.429688 243.539062 345.46875 243.734375 C 345.550781 244.121094 345.632812 244.519531 345.71875 244.929688 C 345.753906 245.109375 345.792969 245.289062 345.828125 245.472656 C 345.910156 245.867188 345.988281 246.261719 346.074219 246.667969 C 346.109375 246.847656 346.144531 247.027344 346.183594 247.210938 C 346.261719 247.589844 346.335938 247.972656 346.414062 248.359375 C 346.449219 248.542969 346.488281 248.734375 346.523438 248.921875 L 346.523438 248.925781 C 346.609375 249.335938 346.691406 249.746094 346.773438 250.15625 C 346.808594 250.347656 346.847656 250.535156 346.882812 250.722656 C 346.960938 251.121094 347.035156 251.519531 347.113281 251.914062 C 347.152344 252.097656 347.1875 252.285156 347.21875 252.472656 C 347.304688 252.925781 347.394531 253.375 347.476562 253.816406 C 347.511719 254.015625 347.550781 254.214844 347.589844 254.410156 C 347.667969 254.835938 347.742188 255.257812 347.816406 255.667969 C 347.855469 255.867188 347.890625 256.066406 347.925781 256.257812 C 348.011719 256.730469 348.089844 257.191406 348.164062 257.628906 C 348.199219 257.820312 348.230469 258.007812 348.261719 258.191406 C 348.339844 258.675781 348.414062 259.128906 348.480469 259.554688 C 348.511719 259.753906 348.539062 259.949219 348.566406 260.132812 C 348.664062 260.832031 348.742188 261.429688 348.777344 261.886719 C 348.789062 262.023438 348.785156 262.160156 348.765625 262.296875 " fill-opacity="1" fill-rule="evenodd"/><path fill="#7738c7" d="M 337 258.613281 C 336.632812 258.46875 336.121094 258.390625 335.640625 258.421875 C 335.421875 258.4375 335.210938 258.476562 335.019531 258.546875 C 334.988281 258.382812 334.960938 258.222656 334.933594 258.0625 C 335.144531 257.992188 335.371094 257.953125 335.609375 257.9375 C 336.054688 257.90625 336.515625 257.960938 336.90625 258.070312 C 336.9375 258.25 336.96875 258.433594 337 258.613281 " fill-opacity="1" fill-rule="evenodd"/><path fill="#7738c7" d="M 336.675781 256.769531 C 336.296875 256.613281 335.761719 256.523438 335.253906 256.558594 C 335.054688 256.570312 334.863281 256.601562 334.683594 256.65625 C 334.660156 256.496094 334.628906 256.335938 334.601562 256.175781 C 334.796875 256.117188 335.007812 256.082031 335.21875 256.066406 C 335.6875 256.035156 336.175781 256.101562 336.578125 256.21875 C 336.609375 256.402344 336.640625 256.585938 336.675781 256.769531 " fill-opacity="1" fill-rule="evenodd"/><path fill="#7738c7" d="M 336.328125 254.78125 C 335.957031 254.640625 335.453125 254.5625 334.976562 254.597656 C 334.757812 254.613281 334.542969 254.648438 334.347656 254.71875 C 334.324219 254.554688 334.292969 254.394531 334.269531 254.234375 C 334.476562 254.164062 334.707031 254.125 334.945312 254.109375 C 335.386719 254.078125 335.847656 254.132812 336.234375 254.238281 C 336.265625 254.417969 336.292969 254.597656 336.328125 254.78125 " fill-opacity="1" fill-rule="evenodd"/><path fill="#7738c7" d="M 336.023438 253.015625 C 335.648438 252.859375 335.117188 252.769531 334.613281 252.804688 C 334.414062 252.816406 334.21875 252.851562 334.042969 252.90625 C 334.015625 252.742188 333.988281 252.582031 333.960938 252.421875 C 334.15625 252.363281 334.363281 252.328125 334.578125 252.316406 C 335.042969 252.285156 335.53125 252.34375 335.933594 252.464844 C 335.960938 252.644531 335.992188 252.828125 336.023438 253.015625 " fill-opacity="1" fill-rule="evenodd"/><path fill="#7738c7" d="M 335.707031 251.113281 C 335.347656 250.996094 334.890625 250.9375 334.457031 250.964844 C 334.203125 250.980469 333.957031 251.03125 333.746094 251.121094 C 333.71875 250.953125 333.691406 250.789062 333.664062 250.628906 C 333.898438 250.542969 334.15625 250.496094 334.421875 250.476562 C 334.832031 250.449219 335.25 250.492188 335.621094 250.582031 C 335.648438 250.757812 335.675781 250.933594 335.707031 251.113281 " fill-opacity="1" fill-rule="evenodd"/><path fill="#7738c7" d="M 335.433594 249.4375 C 335.070312 249.316406 334.609375 249.253906 334.171875 249.285156 C 333.921875 249.300781 333.683594 249.347656 333.472656 249.433594 C 333.445312 249.265625 333.421875 249.105469 333.394531 248.945312 C 333.625 248.859375 333.878906 248.8125 334.140625 248.792969 C 334.546875 248.765625 334.976562 248.8125 335.347656 248.90625 C 335.375 249.082031 335.402344 249.257812 335.433594 249.4375 " fill-opacity="1" fill-rule="evenodd"/><path fill="#7738c7" d="M 335.128906 247.496094 C 334.753906 247.355469 334.25 247.277344 333.769531 247.3125 C 333.558594 247.324219 333.34375 247.363281 333.160156 247.429688 C 333.132812 247.261719 333.109375 247.097656 333.085938 246.9375 C 333.289062 246.875 333.511719 246.839844 333.738281 246.820312 C 334.183594 246.789062 334.652344 246.847656 335.042969 246.957031 C 335.070312 247.136719 335.097656 247.3125 335.128906 247.496094 " fill-opacity="1" fill-rule="evenodd"/><path fill="#7738c7" d="M 334.835938 245.558594 C 334.46875 245.429688 333.992188 245.363281 333.539062 245.394531 C 333.304688 245.410156 333.078125 245.453125 332.878906 245.527344 C 332.855469 245.359375 332.832031 245.195312 332.808594 245.035156 C 333.027344 244.964844 333.261719 244.921875 333.503906 244.90625 C 333.933594 244.878906 334.378906 244.925781 334.757812 245.027344 C 334.78125 245.203125 334.808594 245.378906 334.835938 245.558594 " fill-opacity="1" fill-rule="evenodd"/><path fill="#7738c7" d="M 334.582031 243.734375 C 334.226562 243.625 333.777344 243.5625 333.351562 243.59375 C 333.09375 243.613281 332.847656 243.65625 332.636719 243.75 C 332.613281 243.582031 332.59375 243.414062 332.574219 243.253906 C 332.800781 243.171875 333.054688 243.121094 333.316406 243.105469 C 333.726562 243.078125 334.148438 243.121094 334.519531 243.210938 C 334.539062 243.382812 334.558594 243.554688 334.582031 243.734375 " fill-opacity="1" fill-rule="evenodd"/><path fill="#7738c7" d="M 334.367188 241.863281 C 334.019531 241.757812 333.597656 241.707031 333.191406 241.738281 C 332.917969 241.753906 332.648438 241.8125 332.425781 241.917969 C 332.410156 241.730469 332.398438 241.5625 332.386719 241.40625 C 332.621094 241.316406 332.886719 241.269531 333.160156 241.25 C 333.554688 241.222656 333.964844 241.261719 334.324219 241.347656 C 334.335938 241.503906 334.347656 241.675781 334.367188 241.863281 " fill-opacity="1" fill-rule="evenodd"/><path fill="#7738c7" d="M 335 239.621094 C 334.871094 239.730469 334.757812 239.851562 334.660156 239.976562 C 334.378906 239.753906 334 239.554688 333.613281 239.4375 C 333.332031 239.347656 333.042969 239.300781 332.78125 239.332031 C 332.875 239.164062 332.980469 239 333.097656 238.839844 C 333.3125 238.855469 333.539062 238.898438 333.757812 238.96875 C 334.214844 239.109375 334.660156 239.355469 335 239.621094 " fill-opacity="1" fill-rule="evenodd"/><path fill="#7738c7" d="M 336.152344 238.824219 C 336.007812 238.898438 335.867188 238.980469 335.730469 239.066406 C 335.53125 238.726562 335.195312 238.351562 334.808594 238.078125 C 334.617188 237.941406 334.410156 237.828125 334.203125 237.761719 C 334.355469 237.648438 334.519531 237.539062 334.683594 237.433594 C 334.824219 237.503906 334.960938 237.585938 335.09375 237.679688 C 335.535156 237.996094 335.917969 238.425781 336.152344 238.824219 " fill-opacity="1" fill-rule="evenodd"/><path fill="#7738c7" d="M 337.59375 238.230469 C 337.4375 238.277344 337.285156 238.332031 337.132812 238.386719 C 337.015625 237.992188 336.734375 237.511719 336.378906 237.140625 C 336.246094 237.003906 336.101562 236.875 335.949219 236.777344 C 336.125 236.703125 336.300781 236.632812 336.480469 236.566406 C 336.566406 236.640625 336.652344 236.71875 336.730469 236.800781 C 337.140625 237.226562 337.453125 237.773438 337.59375 238.230469 " fill-opacity="1" fill-rule="evenodd"/><path fill="#7738c7" d="M 339.195312 237.867188 C 339.035156 237.886719 338.875 237.914062 338.714844 237.945312 C 338.664062 237.558594 338.503906 237.089844 338.265625 236.691406 C 338.144531 236.488281 338 236.296875 337.832031 236.152344 C 338.019531 236.109375 338.207031 236.066406 338.394531 236.035156 C 338.5 236.15625 338.597656 236.296875 338.6875 236.441406 C 338.957031 236.890625 339.132812 237.417969 339.195312 237.867188 " fill-opacity="1" fill-rule="evenodd"/><path fill="#7738c7" d="M 341.054688 237.820312 C 340.898438 237.796875 340.734375 237.789062 340.570312 237.78125 C 340.625 237.363281 340.546875 236.785156 340.339844 236.285156 C 340.277344 236.128906 340.203125 235.976562 340.117188 235.84375 C 340.308594 235.835938 340.496094 235.835938 340.679688 235.847656 C 340.722656 235.929688 340.761719 236.015625 340.796875 236.101562 C 341.027344 236.675781 341.109375 237.332031 341.054688 237.820312 " fill-opacity="1" fill-rule="evenodd"/><path fill="#7738c7" d="M 342.667969 237.128906 C 342.59375 237.535156 342.441406 237.921875 342.234375 238.238281 C 342.132812 238.128906 341.980469 238.058594 341.8125 237.996094 C 341.988281 237.734375 342.125 237.398438 342.183594 237.046875 C 342.242188 236.710938 342.230469 236.359375 342.109375 236.054688 C 342.308594 236.109375 342.496094 236.175781 342.667969 236.253906 C 342.722656 236.535156 342.714844 236.835938 342.667969 237.128906 " fill-opacity="1" fill-rule="evenodd"/><path fill="#7738c7" d="M 344.359375 238.488281 C 344.195312 238.707031 343.976562 238.902344 343.742188 239.054688 C 343.382812 239.292969 342.972656 239.449219 342.59375 239.511719 C 342.558594 239.339844 342.523438 239.179688 342.492188 239.03125 C 342.8125 238.988281 343.164062 238.855469 343.472656 238.652344 C 343.792969 238.4375 344.070312 238.148438 344.191406 237.792969 C 344.222656 237.878906 344.246094 237.96875 344.265625 238.058594 C 344.292969 238.183594 344.324219 238.328125 344.359375 238.488281 " fill-opacity="1" fill-rule="evenodd"/><path fill="#7738c7" d="M 344.773438 240.410156 C 344.566406 240.585938 344.324219 240.726562 344.074219 240.832031 C 343.695312 240.984375 343.289062 241.054688 342.925781 241.046875 C 342.886719 240.878906 342.855469 240.710938 342.820312 240.554688 C 343.148438 240.582031 343.535156 240.519531 343.890625 240.375 C 344.183594 240.257812 344.457031 240.078125 344.652344 239.839844 C 344.691406 240.023438 344.730469 240.210938 344.773438 240.410156 " fill-opacity="1" fill-rule="evenodd"/><path fill="#7738c7" d="M 345.121094 242.066406 C 344.921875 242.230469 344.695312 242.363281 344.449219 242.464844 C 344.0625 242.621094 343.640625 242.691406 343.269531 242.679688 C 343.234375 242.511719 343.199219 242.347656 343.164062 242.183594 C 343.5 242.21875 343.898438 242.160156 344.265625 242.011719 C 344.546875 241.894531 344.8125 241.726562 345.003906 241.507812 C 345.042969 241.6875 345.082031 241.875 345.121094 242.066406 " fill-opacity="1" fill-rule="evenodd"/><path fill="#7738c7" d="M 345.46875 243.734375 C 345.269531 243.898438 345.042969 244.027344 344.800781 244.125 C 344.410156 244.285156 343.988281 244.355469 343.617188 244.34375 C 343.582031 244.175781 343.550781 244.011719 343.515625 243.847656 C 343.847656 243.882812 344.25 243.820312 344.617188 243.675781 C 344.898438 243.558594 345.160156 243.390625 345.351562 243.167969 C 345.390625 243.351562 345.429688 243.539062 345.46875 243.734375 " fill-opacity="1" fill-rule="evenodd"/><path fill="#7738c7" d="M 345.828125 245.472656 C 345.652344 245.605469 345.457031 245.710938 345.25 245.792969 C 344.824219 245.96875 344.355469 246.035156 343.957031 246.003906 C 343.925781 245.835938 343.890625 245.667969 343.855469 245.5 C 344.214844 245.5625 344.660156 245.503906 345.066406 245.339844 C 345.308594 245.242188 345.539062 245.109375 345.71875 244.929688 C 345.753906 245.109375 345.792969 245.289062 345.828125 245.472656 " fill-opacity="1" fill-rule="evenodd"/><path fill="#7738c7" d="M 346.183594 247.210938 C 346.011719 247.335938 345.824219 247.441406 345.625 247.519531 C 345.191406 247.695312 344.714844 247.761719 344.3125 247.726562 C 344.277344 247.558594 344.242188 247.390625 344.207031 247.222656 C 344.566406 247.289062 345.027344 247.234375 345.441406 247.066406 C 345.671875 246.972656 345.894531 246.839844 346.074219 246.667969 C 346.109375 246.847656 346.144531 247.027344 346.183594 247.210938 " fill-opacity="1" fill-rule="evenodd"/><path fill="#7738c7" d="M 346.523438 248.921875 L 346.523438 248.925781 C 346.328125 249.085938 346.101562 249.210938 345.863281 249.308594 C 345.472656 249.46875 345.050781 249.539062 344.671875 249.523438 C 344.640625 249.359375 344.605469 249.195312 344.574219 249.03125 C 344.910156 249.066406 345.3125 249.003906 345.683594 248.855469 C 345.960938 248.742188 346.222656 248.574219 346.414062 248.359375 C 346.449219 248.542969 346.488281 248.734375 346.523438 248.921875 " fill-opacity="1" fill-rule="evenodd"/><path fill="#7738c7" d="M 346.882812 250.722656 C 346.6875 250.878906 346.46875 251.003906 346.238281 251.09375 C 345.835938 251.257812 345.402344 251.328125 345.023438 251.3125 C 344.992188 251.148438 344.960938 250.980469 344.929688 250.816406 C 345.269531 250.855469 345.679688 250.792969 346.054688 250.644531 C 346.328125 250.53125 346.582031 250.371094 346.773438 250.15625 C 346.808594 250.347656 346.847656 250.535156 346.882812 250.722656 " fill-opacity="1" fill-rule="evenodd"/><path fill="#7738c7" d="M 347.21875 252.472656 C 347.035156 252.613281 346.828125 252.730469 346.605469 252.820312 C 346.195312 252.988281 345.75 253.058594 345.359375 253.035156 C 345.328125 252.871094 345.296875 252.703125 345.261719 252.535156 C 345.609375 252.582031 346.035156 252.523438 346.421875 252.367188 C 346.683594 252.261719 346.929688 252.109375 347.113281 251.914062 C 347.152344 252.097656 347.1875 252.285156 347.21875 252.472656 " fill-opacity="1" fill-rule="evenodd"/><path fill="#7738c7" d="M 347.589844 254.410156 C 347.378906 254.59375 347.132812 254.738281 346.867188 254.847656 C 346.5 254.996094 346.097656 255.066406 345.738281 255.066406 C 345.710938 254.902344 345.683594 254.738281 345.652344 254.574219 C 345.972656 254.59375 346.339844 254.53125 346.683594 254.394531 C 346.996094 254.269531 347.285156 254.074219 347.476562 253.816406 C 347.511719 254.015625 347.550781 254.214844 347.589844 254.410156 " fill-opacity="1" fill-rule="evenodd"/><path fill="#7738c7" d="M 347.925781 256.257812 C 347.71875 256.4375 347.476562 256.582031 347.21875 256.6875 C 346.84375 256.835938 346.4375 256.90625 346.074219 256.902344 C 346.046875 256.742188 346.015625 256.578125 345.988281 256.414062 C 346.3125 256.433594 346.6875 256.375 347.035156 256.230469 C 347.339844 256.109375 347.625 255.921875 347.816406 255.667969 C 347.855469 255.867188 347.890625 256.066406 347.925781 256.257812 " fill-opacity="1" fill-rule="evenodd"/><path fill="#7738c7" d="M 348.261719 258.191406 C 348.085938 258.324219 347.886719 258.429688 347.679688 258.515625 C 347.253906 258.6875 346.785156 258.757812 346.386719 258.726562 C 346.359375 258.5625 346.332031 258.394531 346.304688 258.226562 C 346.65625 258.28125 347.097656 258.222656 347.496094 258.0625 C 347.746094 257.960938 347.980469 257.816406 348.164062 257.628906 C 348.199219 257.820312 348.230469 258.007812 348.261719 258.191406 " fill-opacity="1" fill-rule="evenodd"/><path fill="#7738c7" d="M 348.566406 260.132812 C 348.382812 260.273438 348.175781 260.386719 347.957031 260.472656 C 347.542969 260.644531 347.082031 260.714844 346.683594 260.6875 C 346.664062 260.527344 346.640625 260.363281 346.617188 260.191406 C 346.964844 260.238281 347.390625 260.179688 347.777344 260.019531 C 348.042969 259.914062 348.292969 259.757812 348.480469 259.554688 C 348.511719 259.753906 348.539062 259.949219 348.566406 260.132812 " fill-opacity="1" fill-rule="evenodd"/><path fill="#7738c7" d="M 348.765625 262.296875 C 348.738281 262.488281 348.675781 262.675781 348.585938 262.859375 C 348.316406 262.914062 348.03125 262.917969 347.75 262.878906 C 347.265625 262.8125 346.804688 262.625 346.464844 262.382812 C 346.566406 262.304688 346.660156 262.230469 346.734375 262.152344 C 346.765625 262.121094 346.796875 262.070312 346.820312 262.035156 C 347.09375 262.214844 347.445312 262.347656 347.816406 262.394531 C 348.140625 262.4375 348.472656 262.417969 348.765625 262.296875 " fill-opacity="1" fill-rule="evenodd"/><path fill="#7738c7" d="M 346.847656 264.402344 C 346.671875 264.5 346.480469 264.585938 346.28125 264.671875 C 346.027344 264.511719 345.804688 264.292969 345.617188 264.046875 C 345.386719 263.742188 345.21875 263.386719 345.128906 263.050781 C 345.285156 262.992188 345.4375 262.933594 345.582031 262.867188 C 345.652344 263.164062 345.804688 263.480469 346.007812 263.753906 C 346.226562 264.046875 346.515625 264.292969 346.847656 264.402344 " fill-opacity="1" fill-rule="evenodd"/><path fill="#7738c7" d="M 345.160156 265.078125 C 344.949219 265.140625 344.738281 265.195312 344.523438 265.25 C 344.511719 265.25 344.5 265.253906 344.488281 265.257812 C 344.203125 265.035156 343.980469 264.730469 343.820312 264.398438 C 343.675781 264.097656 343.585938 263.773438 343.546875 263.464844 C 343.703125 263.4375 343.867188 263.40625 344.027344 263.367188 C 344.054688 263.636719 344.132812 263.921875 344.257812 264.1875 C 344.453125 264.585938 344.75 264.933594 345.160156 265.078125 " fill-opacity="1" fill-rule="evenodd"/><path fill="#7738c7" d="M 343.484375 265.433594 C 343.238281 265.464844 342.996094 265.488281 342.757812 265.5 C 342.488281 265.214844 342.308594 264.847656 342.203125 264.460938 C 342.125 264.160156 342.097656 263.855469 342.109375 263.5625 C 342.269531 263.574219 342.429688 263.574219 342.597656 263.566406 C 342.582031 263.8125 342.609375 264.078125 342.679688 264.335938 C 342.800781 264.792969 343.050781 265.226562 343.476562 265.429688 C 343.480469 265.429688 343.484375 265.433594 343.484375 265.433594 " fill-opacity="1" fill-rule="evenodd"/><path fill="#7738c7" d="M 340.894531 264.34375 C 340.789062 264.652344 340.746094 264.980469 340.808594 265.289062 C 340.621094 265.226562 340.449219 265.152344 340.296875 265.0625 C 340.285156 264.769531 340.332031 264.472656 340.429688 264.1875 C 340.578125 263.746094 340.828125 263.347656 341.113281 263.0625 C 341.136719 263.152344 341.15625 263.238281 341.179688 263.320312 C 341.195312 263.375 341.253906 263.378906 341.308594 263.402344 C 341.34375 263.417969 341.382812 263.433594 341.417969 263.449219 C 341.199219 263.679688 341.007812 263.996094 340.894531 264.34375 " fill-opacity="1" fill-rule="evenodd"/><path fill="#7738c7" d="M 340.847656 261.957031 C 340.535156 261.992188 340.1875 262.113281 339.878906 262.304688 C 339.550781 262.507812 339.265625 262.785156 339.132812 263.136719 C 339.082031 262.921875 339.027344 262.695312 338.972656 262.453125 C 339.152344 262.230469 339.375 262.039062 339.625 261.886719 C 339.976562 261.667969 340.375 261.527344 340.746094 261.476562 C 340.777344 261.640625 340.8125 261.800781 340.847656 261.957031 " fill-opacity="1" fill-rule="evenodd"/><path fill="#7738c7" d="M 340.515625 260.375 C 340.179688 260.347656 339.777344 260.414062 339.417969 260.566406 C 339.132812 260.6875 338.871094 260.863281 338.683594 261.09375 C 338.644531 260.902344 338.605469 260.714844 338.566406 260.519531 C 338.761719 260.351562 338.988281 260.21875 339.226562 260.117188 C 339.613281 259.949219 340.039062 259.875 340.417969 259.882812 C 340.449219 260.046875 340.480469 260.210938 340.515625 260.375 " fill-opacity="1" fill-rule="evenodd"/><path fill="#7738c7" d="M 340.179688 258.664062 C 339.824219 258.609375 339.382812 258.675781 338.980469 258.84375 C 338.734375 258.945312 338.503906 259.089844 338.328125 259.28125 C 338.292969 259.097656 338.253906 258.910156 338.21875 258.722656 C 338.394531 258.585938 338.589844 258.476562 338.792969 258.394531 C 339.21875 258.214844 339.6875 258.136719 340.089844 258.160156 C 340.121094 258.332031 340.148438 258.5 340.179688 258.664062 " fill-opacity="1" fill-rule="evenodd"/><path fill="#7738c7" d="M 339.851562 256.832031 C 339.542969 256.832031 339.199219 256.898438 338.886719 257.03125 C 338.539062 257.179688 338.226562 257.40625 338.039062 257.714844 C 338 257.507812 337.960938 257.296875 337.925781 257.082031 C 338.144531 256.871094 338.40625 256.703125 338.695312 256.582031 C 339.042969 256.4375 339.417969 256.355469 339.765625 256.347656 C 339.789062 256.511719 339.820312 256.671875 339.851562 256.832031 " fill-opacity="1" fill-rule="evenodd"/><path fill="#7738c7" d="M 339.546875 255.101562 C 339.234375 255.09375 338.878906 255.164062 338.550781 255.300781 C 338.21875 255.4375 337.914062 255.652344 337.730469 255.945312 C 337.691406 255.738281 337.652344 255.53125 337.621094 255.324219 C 337.828125 255.121094 338.089844 254.964844 338.363281 254.847656 C 338.71875 254.695312 339.109375 254.617188 339.464844 254.613281 C 339.492188 254.777344 339.519531 254.941406 339.546875 255.101562 " fill-opacity="1" fill-rule="evenodd"/><path fill="#7738c7" d="M 339.230469 253.210938 C 338.9375 253.214844 338.621094 253.285156 338.320312 253.410156 C 337.945312 253.570312 337.605469 253.824219 337.425781 254.179688 C 337.390625 253.953125 337.351562 253.730469 337.316406 253.503906 C 337.542969 253.273438 337.828125 253.089844 338.132812 252.960938 C 338.464844 252.820312 338.820312 252.742188 339.152344 252.726562 C 339.179688 252.890625 339.207031 253.050781 339.230469 253.210938 " fill-opacity="1" fill-rule="evenodd"/><path fill="#7738c7" d="M 338.953125 251.492188 C 338.664062 251.5 338.351562 251.566406 338.058594 251.691406 C 337.675781 251.855469 337.324219 252.117188 337.152344 252.488281 C 337.113281 252.257812 337.078125 252.027344 337.039062 251.800781 C 337.265625 251.558594 337.554688 251.375 337.867188 251.242188 C 338.195312 251.101562 338.546875 251.023438 338.875 251.007812 C 338.902344 251.167969 338.929688 251.332031 338.953125 251.492188 " fill-opacity="1" fill-rule="evenodd"/><path fill="#7738c7" d="M 338.648438 249.550781 C 338.355469 249.554688 338.035156 249.621094 337.734375 249.746094 C 337.355469 249.90625 337.011719 250.164062 336.839844 250.519531 C 336.800781 250.289062 336.765625 250.0625 336.730469 249.839844 C 336.957031 249.605469 337.238281 249.425781 337.542969 249.296875 C 337.878906 249.152344 338.238281 249.078125 338.570312 249.0625 C 338.597656 249.222656 338.621094 249.386719 338.648438 249.550781 " fill-opacity="1" fill-rule="evenodd"/><path fill="#7738c7" d="M 338.351562 247.601562 C 338.066406 247.59375 337.761719 247.644531 337.46875 247.75 C 337.078125 247.886719 336.71875 248.128906 336.523438 248.484375 C 336.488281 248.257812 336.453125 248.042969 336.421875 247.824219 C 336.664062 247.585938 336.972656 247.40625 337.304688 247.289062 C 337.621094 247.175781 337.960938 247.117188 338.277344 247.113281 C 338.300781 247.273438 338.324219 247.4375 338.351562 247.601562 " fill-opacity="1" fill-rule="evenodd"/><path fill="#7738c7" d="M 338.074219 245.75 C 337.789062 245.738281 337.476562 245.792969 337.179688 245.894531 C 336.792969 246.035156 336.433594 246.269531 336.238281 246.617188 C 336.207031 246.386719 336.175781 246.167969 336.140625 245.960938 L 336.140625 245.957031 C 336.382812 245.726562 336.6875 245.554688 337.015625 245.433594 C 337.339844 245.320312 337.683594 245.261719 338.003906 245.261719 C 338.023438 245.414062 338.046875 245.578125 338.074219 245.75 " fill-opacity="1" fill-rule="evenodd"/><path fill="#7738c7" d="M 338.085938 243.808594 C 337.96875 243.9375 337.890625 244.085938 337.875 244.265625 C 337.632812 244.214844 337.371094 244.199219 337.109375 244.222656 C 336.671875 244.269531 336.238281 244.429688 335.96875 244.761719 C 335.964844 244.746094 335.960938 244.726562 335.957031 244.714844 C 335.929688 244.511719 335.925781 244.320312 335.933594 244.132812 C 336.261719 243.90625 336.652344 243.777344 337.058594 243.738281 C 337.410156 243.699219 337.765625 243.734375 338.085938 243.808594 " fill-opacity="1" fill-rule="evenodd"/><path fill="#7738c7" d="M 339.300781 243.25 C 339.140625 243.269531 338.972656 243.308594 338.816406 243.363281 C 338.675781 243.066406 338.4375 242.761719 338.136719 242.527344 C 337.839844 242.292969 337.480469 242.121094 337.113281 242.117188 C 337.304688 241.972656 337.507812 241.847656 337.722656 241.738281 C 337.980469 241.832031 338.21875 241.972656 338.441406 242.144531 C 338.828125 242.453125 339.136719 242.859375 339.300781 243.25 " fill-opacity="1" fill-rule="evenodd"/><path fill="#7738c7" d="M 340.53125 242.335938 C 340.511719 242.695312 340.429688 243.046875 340.300781 243.351562 C 340.289062 243.339844 340.277344 243.339844 340.265625 243.332031 C 340.132812 243.277344 339.980469 243.242188 339.820312 243.230469 C 339.945312 242.964844 340.027344 242.640625 340.039062 242.3125 C 340.058594 241.953125 340 241.585938 339.820312 241.289062 C 340.015625 241.292969 340.203125 241.316406 340.386719 241.355469 C 340.503906 241.660156 340.546875 242 340.53125 242.335938 " fill-opacity="1" fill-rule="evenodd"/><path fill="#7738c7" d="M 342.507812 243.945312 C 342.507812 243.949219 342.507812 243.949219 342.507812 243.949219 C 342.269531 244.191406 341.96875 244.375 341.640625 244.507812 C 341.320312 244.628906 340.984375 244.695312 340.667969 244.707031 C 340.636719 244.53125 340.613281 244.371094 340.589844 244.222656 C 340.871094 244.21875 341.179688 244.160156 341.464844 244.050781 C 341.867188 243.894531 342.234375 243.628906 342.410156 243.25 C 342.417969 243.285156 342.421875 243.320312 342.425781 243.359375 C 342.445312 243.515625 342.472656 243.710938 342.507812 243.945312 " fill-opacity="1" fill-rule="evenodd"/><path fill="#7738c7" d="M 342.800781 245.648438 C 342.570312 245.871094 342.285156 246.042969 341.976562 246.160156 C 341.648438 246.289062 341.289062 246.355469 340.960938 246.363281 C 340.929688 246.195312 340.898438 246.035156 340.871094 245.875 C 341.167969 245.882812 341.496094 245.824219 341.800781 245.703125 C 342.164062 245.566406 342.496094 245.335938 342.6875 245.015625 C 342.722656 245.214844 342.757812 245.425781 342.800781 245.648438 " fill-opacity="1" fill-rule="evenodd"/><path fill="#7738c7" d="M 343.113281 247.324219 C 342.894531 247.519531 342.628906 247.671875 342.347656 247.78125 C 341.996094 247.921875 341.613281 247.988281 341.265625 247.988281 C 341.234375 247.824219 341.203125 247.660156 341.171875 247.496094 C 341.484375 247.515625 341.84375 247.457031 342.171875 247.328125 C 342.496094 247.203125 342.800781 247.003906 343 246.726562 C 343.035156 246.921875 343.074219 247.121094 343.113281 247.324219 " fill-opacity="1" fill-rule="evenodd"/><path fill="#7738c7" d="M 343.429688 248.964844 C 343.203125 249.171875 342.933594 249.328125 342.644531 249.441406 C 342.300781 249.578125 341.925781 249.644531 341.585938 249.644531 C 341.554688 249.480469 341.523438 249.316406 341.492188 249.152344 C 341.800781 249.167969 342.148438 249.109375 342.464844 248.984375 C 342.804688 248.855469 343.117188 248.652344 343.3125 248.363281 C 343.351562 248.5625 343.386719 248.765625 343.429688 248.964844 " fill-opacity="1" fill-rule="evenodd"/><path fill="#7738c7" d="M 343.757812 250.652344 C 343.539062 250.855469 343.269531 251.007812 342.984375 251.121094 C 342.636719 251.257812 342.257812 251.324219 341.914062 251.324219 C 341.882812 251.160156 341.851562 250.996094 341.820312 250.832031 C 342.128906 250.847656 342.484375 250.789062 342.8125 250.664062 C 343.136719 250.535156 343.445312 250.335938 343.640625 250.058594 C 343.683594 250.253906 343.71875 250.453125 343.757812 250.652344 " fill-opacity="1" fill-rule="evenodd"/><path fill="#7738c7" d="M 344.117188 252.457031 C 343.90625 252.644531 343.652344 252.785156 343.386719 252.894531 C 343.019531 253.035156 342.621094 253.101562 342.269531 253.09375 C 342.234375 252.933594 342.203125 252.765625 342.167969 252.601562 C 342.492188 252.628906 342.867188 252.570312 343.207031 252.4375 C 343.515625 252.316406 343.804688 252.132812 344 251.878906 C 344.042969 252.078125 344.082031 252.269531 344.117188 252.457031 " fill-opacity="1" fill-rule="evenodd"/><path fill="#7738c7" d="M 344.453125 254.136719 C 344.222656 254.367188 343.933594 254.542969 343.617188 254.660156 C 343.289062 254.789062 342.945312 254.859375 342.621094 254.867188 C 342.589844 254.707031 342.558594 254.546875 342.523438 254.378906 C 342.8125 254.382812 343.136719 254.324219 343.441406 254.207031 C 343.800781 254.066406 344.136719 253.839844 344.328125 253.515625 C 344.371094 253.726562 344.414062 253.933594 344.453125 254.136719 " fill-opacity="1" fill-rule="evenodd"/></svg>